<svg id="visual" viewBox="0 0 1500 900" width="1500" height="900" xmlns="http://www.w3.org/2000/svg" xmlns:xlink="http://www.w3.org/1999/xlink" version="1.1"><path d="M0 181L136 334L273 352L409 172L545 253L682 145L818 127L955 235L1091 136L1227 190L1364 271L1500 280L1500 0L1364 0L1227 0L1091 0L955 0L818 0L682 0L545 0L409 0L273 0L136 0L0 0Z" fill="#fcaf3c"></path><path d="M0 532L136 523L273 586L409 568L545 487L682 469L818 523L955 424L1091 433L1227 460L1364 415L1500 586L1500 278L1364 269L1227 188L1091 134L955 233L818 125L682 143L545 251L409 170L273 350L136 332L0 179Z" fill="#fba230"></path><path d="M0 703L136 685L273 676L409 667L545 586L682 640L818 604L955 568L1091 550L1227 631L1364 604L1500 676L1500 584L1364 413L1227 458L1091 431L955 422L818 521L682 467L545 485L409 566L273 584L136 521L0 530Z" fill="#fa9424"></path><path d="M0 838L136 766L273 766L409 802L545 775L682 838L818 811L955 748L1091 793L1227 748L1364 811L1500 766L1500 674L1364 602L1227 629L1091 548L955 566L818 602L682 638L545 584L409 665L273 674L136 683L0 701Z" fill="#f98619"></path><path d="M0 901L136 901L273 901L409 901L545 901L682 901L818 901L955 901L1091 901L1227 901L1364 901L1500 901L1500 764L1364 809L1227 746L1091 791L955 746L818 809L682 836L545 773L409 800L273 764L136 764L0 836Z" fill="#f7770f"></path></svg>