<svg id="visual" viewBox="0 0 2560 1664" width="2560" height="1664" xmlns="http://www.w3.org/2000/svg" xmlns:xlink="http://www.w3.org/1999/xlink" version="1.1"><path d="M0 600L233 434L465 500L698 484L931 567L1164 550L1396 517L1629 600L1862 500L2095 434L2327 517L2560 467L2560 0L2327 0L2095 0L1862 0L1629 0L1396 0L1164 0L931 0L698 0L465 0L233 0L0 0Z" fill="#038373"></path><path d="M0 1033L233 983L465 800L698 1049L931 949L1164 1133L1396 949L1629 949L1862 833L2095 816L2327 866L2560 966L2560 465L2327 515L2095 432L1862 498L1629 598L1396 515L1164 548L931 565L698 482L465 498L233 432L0 598Z" fill="#3e9664"></path><path d="M0 1216L233 1133L465 1199L698 1249L931 1149L1164 1332L1396 1332L1629 1266L1862 1216L2095 1116L2327 1282L2560 1382L2560 964L2327 864L2095 814L1862 831L1629 947L1396 947L1164 1131L931 947L698 1047L465 798L233 981L0 1031Z" fill="#77a64c"></path><path d="M0 1449L233 1449L465 1549L698 1449L931 1449L1164 1482L1396 1515L1629 1565L1862 1399L2095 1415L2327 1415L2560 1532L2560 1380L2327 1280L2095 1114L1862 1214L1629 1264L1396 1330L1164 1330L931 1147L698 1247L465 1197L233 1131L0 1214Z" fill="#b6af37"></path><path d="M0 1665L233 1665L465 1665L698 1665L931 1665L1164 1665L1396 1665L1629 1665L1862 1665L2095 1665L2327 1665L2560 1665L2560 1530L2327 1413L2095 1413L1862 1397L1629 1563L1396 1513L1164 1480L931 1447L698 1447L465 1547L233 1447L0 1447Z" fill="#fcaf3c"></path></svg>