<svg id="visual" viewBox="0 0 960 540" width="960" height="540" xmlns="http://www.w3.org/2000/svg" xmlns:xlink="http://www.w3.org/1999/xlink" version="1.1"><path d="M0 104L87 98L175 114L262 131L349 104L436 120L524 114L611 66L698 98L785 71L873 60L960 136L960 0L873 0L785 0L698 0L611 0L524 0L436 0L349 0L262 0L175 0L87 0L0 0Z" fill="#fcaf3c"></path><path d="M0 168L87 174L175 152L262 228L349 195L436 212L524 233L611 120L698 179L785 152L873 163L960 190L960 134L873 58L785 69L698 96L611 64L524 112L436 118L349 102L262 129L175 112L87 96L0 102Z" fill="#b6af37"></path><path d="M0 222L87 206L175 222L262 276L349 249L436 266L524 276L611 201L698 249L785 201L873 195L960 271L960 188L873 161L785 150L698 177L611 118L524 231L436 210L349 193L262 226L175 150L87 172L0 166Z" fill="#77a64c"></path><path d="M0 347L87 406L175 336L262 455L349 379L436 460L524 422L611 325L698 395L785 428L873 401L960 352L960 269L873 193L785 199L698 247L611 199L524 274L436 264L349 247L262 274L175 220L87 204L0 220Z" fill="#3e9664"></path><path d="M0 541L87 541L175 541L262 541L349 541L436 541L524 541L611 541L698 541L785 541L873 541L960 541L960 350L873 399L785 426L698 393L611 323L524 420L436 458L349 377L262 453L175 334L87 404L0 345Z" fill="#038373"></path></svg>