<svg id="visual" viewBox="0 0 960 540" width="960" height="540" xmlns="http://www.w3.org/2000/svg" xmlns:xlink="http://www.w3.org/1999/xlink" version="1.1"><rect x="0" y="0" width="960" height="540" fill="#001220"></rect><path d="M0 198L22.8 190.8C45.7 183.7 91.3 169.3 137 158.7C182.7 148 228.3 141 274 143C319.7 145 365.3 156 411.2 170C457 184 503 201 548.8 206C594.7 211 640.3 204 686 195.8C731.7 187.7 777.3 178.3 823 173.7C868.7 169 914.3 169 937.2 169L960 169L960 0L937.2 0C914.3 0 868.7 0 823 0C777.3 0 731.7 0 686 0C640.3 0 594.7 0 548.8 0C503 0 457 0 411.2 0C365.3 0 319.7 0 274 0C228.3 0 182.7 0 137 0C91.3 0 45.7 0 22.8 0L0 0Z" fill="#fa7268"></path><path d="M0 130L22.8 135.7C45.7 141.3 91.3 152.7 137 150.2C182.7 147.7 228.3 131.3 274 130.7C319.7 130 365.3 145 411.2 150.8C457 156.7 503 153.3 548.8 148.3C594.7 143.3 640.3 136.7 686 135.8C731.7 135 777.3 140 823 143.2C868.7 146.3 914.3 147.7 937.2 148.3L960 149L960 0L937.2 0C914.3 0 868.7 0 823 0C777.3 0 731.7 0 686 0C640.3 0 594.7 0 548.8 0C503 0 457 0 411.2 0C365.3 0 319.7 0 274 0C228.3 0 182.7 0 137 0C91.3 0 45.7 0 22.8 0L0 0Z" fill="#ef5f67"></path><path d="M0 138L22.8 130.7C45.7 123.3 91.3 108.7 137 103.5C182.7 98.3 228.3 102.7 274 110C319.7 117.3 365.3 127.7 411.2 132.8C457 138 503 138 548.8 136.7C594.7 135.3 640.3 132.7 686 128.5C731.7 124.3 777.3 118.7 823 111.3C868.7 104 914.3 95 937.2 90.5L960 86L960 0L937.2 0C914.3 0 868.7 0 823 0C777.3 0 731.7 0 686 0C640.3 0 594.7 0 548.8 0C503 0 457 0 411.2 0C365.3 0 319.7 0 274 0C228.3 0 182.7 0 137 0C91.3 0 45.7 0 22.8 0L0 0Z" fill="#e34c67"></path><path d="M0 59L22.8 59.3C45.7 59.7 91.3 60.3 137 59.2C182.7 58 228.3 55 274 57.8C319.7 60.7 365.3 69.3 411.2 71C457 72.7 503 67.3 548.8 69.3C594.7 71.3 640.3 80.7 686 84.7C731.7 88.7 777.3 87.3 823 81.3C868.7 75.3 914.3 64.7 937.2 59.3L960 54L960 0L937.2 0C914.3 0 868.7 0 823 0C777.3 0 731.7 0 686 0C640.3 0 594.7 0 548.8 0C503 0 457 0 411.2 0C365.3 0 319.7 0 274 0C228.3 0 182.7 0 137 0C91.3 0 45.7 0 22.8 0L0 0Z" fill="#d53867"></path><path d="M0 31L22.8 33.5C45.7 36 91.3 41 137 44.8C182.7 48.7 228.3 51.3 274 49.8C319.7 48.3 365.3 42.7 411.2 39.3C457 36 503 35 548.8 33.7C594.7 32.3 640.3 30.7 686 28.7C731.7 26.7 777.3 24.3 823 29.8C868.7 35.3 914.3 48.7 937.2 55.3L960 62L960 0L937.2 0C914.3 0 868.7 0 823 0C777.3 0 731.7 0 686 0C640.3 0 594.7 0 548.8 0C503 0 457 0 411.2 0C365.3 0 319.7 0 274 0C228.3 0 182.7 0 137 0C91.3 0 45.7 0 22.8 0L0 0Z" fill="#c62368"></path></svg>