<svg id="visual" viewBox="0 0 1500 900" width="1500" height="900" xmlns="http://www.w3.org/2000/svg" xmlns:xlink="http://www.w3.org/1999/xlink" version="1.1"><rect x="0" y="0" width="1500" height="900" fill="#001220"></rect><path d="M0 114L50 121.8C100 129.7 200 145.3 300 153C400 160.7 500 160.3 600 156.3C700 152.3 800 144.7 900 139.5C1000 134.3 1100 131.7 1200 133.7C1300 135.7 1400 142.3 1450 145.7L1500 149L1500 0L1450 0C1400 0 1300 0 1200 0C1100 0 1000 0 900 0C800 0 700 0 600 0C500 0 400 0 300 0C200 0 100 0 50 0L0 0Z" fill="#fa7268"></path><path d="M0 116L50 117.5C100 119 200 122 300 124.3C400 126.7 500 128.3 600 125.2C700 122 800 114 900 113C1000 112 1100 118 1200 122.3C1300 126.7 1400 129.3 1450 130.7L1500 132L1500 0L1450 0C1400 0 1300 0 1200 0C1100 0 1000 0 900 0C800 0 700 0 600 0C500 0 400 0 300 0C200 0 100 0 50 0L0 0Z" fill="#ef5f67"></path><path d="M0 78L50 75.7C100 73.3 200 68.7 300 68.7C400 68.7 500 73.3 600 74.8C700 76.3 800 74.7 900 78.7C1000 82.7 1100 92.3 1200 97.5C1300 102.7 1400 103.3 1450 103.7L1500 104L1500 0L1450 0C1400 0 1300 0 1200 0C1100 0 1000 0 900 0C800 0 700 0 600 0C500 0 400 0 300 0C200 0 100 0 50 0L0 0Z" fill="#e34c67"></path><path d="M0 57L50 56.2C100 55.3 200 53.7 300 51.2C400 48.7 500 45.3 600 47.7C700 50 800 58 900 57.3C1000 56.7 1100 47.3 1200 43.5C1300 39.7 1400 41.3 1450 42.2L1500 43L1500 0L1450 0C1400 0 1300 0 1200 0C1100 0 1000 0 900 0C800 0 700 0 600 0C500 0 400 0 300 0C200 0 100 0 50 0L0 0Z" fill="#d53867"></path><path d="M0 20L50 18.5C100 17 200 14 300 13.8C400 13.7 500 16.3 600 18C700 19.7 800 20.3 900 21.7C1000 23 1100 25 1200 25C1300 25 1400 23 1450 22L1500 21L1500 0L1450 0C1400 0 1300 0 1200 0C1100 0 1000 0 900 0C800 0 700 0 600 0C500 0 400 0 300 0C200 0 100 0 50 0L0 0Z" fill="#c62368"></path></svg>