<svg id="visual" viewBox="0 0 2560 1664" width="2560" height="1664" xmlns="http://www.w3.org/2000/svg" xmlns:xlink="http://www.w3.org/1999/xlink" version="1.1"><path d="M0 384L38.8 384C77.7 384 155.3 384 232.8 425.5C310.3 467 387.7 550 465.2 544.3C542.7 538.7 620.3 444.3 698 383.3C775.7 322.3 853.3 294.7 931 333.5C1008.7 372.3 1086.3 477.7 1163.8 516.5C1241.3 555.3 1318.7 527.7 1396.2 525C1473.7 522.3 1551.3 544.7 1629 572.5C1706.7 600.3 1784.3 633.7 1862 614.2C1939.7 594.7 2017.3 522.3 2094.8 502.8C2172.3 483.3 2249.7 516.7 2327.2 494.5C2404.7 472.3 2482.3 394.7 2521.2 355.8L2560 317L2560 0L2521.2 0C2482.3 0 2404.7 0 2327.2 0C2249.7 0 2172.3 0 2094.8 0C2017.3 0 1939.7 0 1862 0C1784.3 0 1706.7 0 1629 0C1551.3 0 1473.7 0 1396.2 0C1318.7 0 1241.3 0 1163.8 0C1086.3 0 1008.7 0 931 0C853.3 0 775.7 0 698 0C620.3 0 542.7 0 465.2 0C387.7 0 310.3 0 232.8 0C155.3 0 77.7 0 38.8 0L0 0Z" fill="#6198ff"></path><path d="M0 600L38.8 602.8C77.7 605.7 155.3 611.3 232.8 647.3C310.3 683.3 387.7 749.7 465.2 749.7C542.7 749.7 620.3 683.3 698 636.2C775.7 589 853.3 561 931 597C1008.7 633 1086.3 733 1163.8 752.5C1241.3 772 1318.7 711 1396.2 691.7C1473.7 672.3 1551.3 694.7 1629 736.3C1706.7 778 1784.3 839 1862 822.3C1939.7 805.7 2017.3 711.3 2094.8 694.7C2172.3 678 2249.7 739 2327.2 722.3C2404.7 705.7 2482.3 611.3 2521.2 564.2L2560 517L2560 315L2521.2 353.8C2482.3 392.7 2404.7 470.3 2327.2 492.5C2249.7 514.7 2172.3 481.3 2094.8 500.8C2017.3 520.3 1939.7 592.7 1862 612.2C1784.3 631.7 1706.7 598.3 1629 570.5C1551.3 542.7 1473.7 520.3 1396.2 523C1318.7 525.7 1241.3 553.3 1163.8 514.5C1086.3 475.7 1008.7 370.3 931 331.5C853.3 292.7 775.7 320.3 698 381.3C620.3 442.3 542.7 536.7 465.2 542.3C387.7 548 310.3 465 232.8 423.5C155.3 382 77.7 382 38.8 382L0 382Z" fill="#3c80ff"></path><path d="M0 1216L38.8 1196.5C77.7 1177 155.3 1138 232.8 1107.5C310.3 1077 387.7 1055 465.2 1077.2C542.7 1099.3 620.3 1165.7 698 1176.7C775.7 1187.7 853.3 1143.3 931 1135C1008.7 1126.7 1086.3 1154.3 1163.8 1132.2C1241.3 1110 1318.7 1038 1396.2 1024.2C1473.7 1010.3 1551.3 1054.7 1629 1093.5C1706.7 1132.3 1784.3 1165.7 1862 1179.5C1939.7 1193.3 2017.3 1187.7 2094.8 1190.5C2172.3 1193.3 2249.7 1204.7 2327.2 1188.2C2404.7 1171.7 2482.3 1127.3 2521.2 1105.2L2560 1083L2560 515L2521.2 562.2C2482.3 609.3 2404.7 703.7 2327.2 720.3C2249.7 737 2172.3 676 2094.8 692.7C2017.3 709.3 1939.7 803.7 1862 820.3C1784.3 837 1706.7 776 1629 734.3C1551.3 692.7 1473.7 670.3 1396.2 689.7C1318.7 709 1241.3 770 1163.8 750.5C1086.3 731 1008.7 631 931 595C853.3 559 775.7 587 698 634.2C620.3 681.3 542.7 747.7 465.2 747.7C387.7 747.7 310.3 681.3 232.8 645.3C155.3 609.3 77.7 603.7 38.8 600.8L0 598Z" fill="#0066ff"></path><path d="M0 1432L38.8 1426.5C77.7 1421 155.3 1410 232.8 1407.2C310.3 1404.3 387.7 1409.7 465.2 1420.7C542.7 1431.7 620.3 1448.3 698 1434.5C775.7 1420.7 853.3 1376.3 931 1373.7C1008.7 1371 1086.3 1410 1163.8 1415.5C1241.3 1421 1318.7 1393 1396.2 1393C1473.7 1393 1551.3 1421 1629 1421C1706.7 1421 1784.3 1393 1862 1387.3C1939.7 1381.7 2017.3 1398.3 2094.8 1401.2C2172.3 1404 2249.7 1393 2327.2 1390.3C2404.7 1387.7 2482.3 1393.3 2521.2 1396.2L2560 1399L2560 1081L2521.2 1103.2C2482.3 1125.3 2404.7 1169.7 2327.2 1186.2C2249.7 1202.7 2172.3 1191.3 2094.8 1188.5C2017.3 1185.7 1939.7 1191.3 1862 1177.5C1784.3 1163.7 1706.7 1130.3 1629 1091.5C1551.3 1052.7 1473.7 1008.3 1396.2 1022.2C1318.7 1036 1241.3 1108 1163.8 1130.2C1086.3 1152.3 1008.7 1124.7 931 1133C853.3 1141.3 775.7 1185.7 698 1174.7C620.3 1163.7 542.7 1097.3 465.2 1075.2C387.7 1053 310.3 1075 232.8 1105.5C155.3 1136 77.7 1175 38.8 1194.5L0 1214Z" fill="#0059dd"></path><path d="M0 1665L38.8 1665C77.7 1665 155.3 1665 232.8 1665C310.3 1665 387.7 1665 465.2 1665C542.7 1665 620.3 1665 698 1665C775.7 1665 853.3 1665 931 1665C1008.7 1665 1086.3 1665 1163.8 1665C1241.3 1665 1318.7 1665 1396.2 1665C1473.7 1665 1551.3 1665 1629 1665C1706.7 1665 1784.3 1665 1862 1665C1939.7 1665 2017.3 1665 2094.8 1665C2172.3 1665 2249.7 1665 2327.2 1665C2404.7 1665 2482.3 1665 2521.2 1665L2560 1665L2560 1397L2521.2 1394.2C2482.3 1391.3 2404.7 1385.7 2327.2 1388.3C2249.7 1391 2172.3 1402 2094.8 1399.2C2017.3 1396.3 1939.7 1379.7 1862 1385.3C1784.3 1391 1706.7 1419 1629 1419C1551.3 1419 1473.7 1391 1396.2 1391C1318.7 1391 1241.3 1419 1163.8 1413.5C1086.3 1408 1008.7 1369 931 1371.7C853.3 1374.3 775.7 1418.7 698 1432.5C620.3 1446.3 542.7 1429.7 465.2 1418.7C387.7 1407.7 310.3 1402.3 232.8 1405.2C155.3 1408 77.7 1419 38.8 1424.5L0 1430Z" fill="#004cbb"></path></svg>